<?xml version="1.0" standalone="no"?>
<!DOCTYPE svg PUBLIC "-//W3C//DTD SVG 20010904//EN"
 "http://www.w3.org/TR/2001/REC-SVG-20010904/DTD/svg10.dtd">
<svg version="1.0" xmlns="http://www.w3.org/2000/svg"
 width="474.000000pt" height="474.000000pt" viewBox="0 0 474.000000 474.000000"
 preserveAspectRatio="xMidYMid meet">
<metadata>
Created by potrace 1.11, written by Peter Selinger 2001-2013
</metadata>
<g transform="translate(0.000000,474.000000) scale(0.100000,-0.100000)"
fill="#000000" stroke="none">
<path d="M371 4703 c4 -26 -3 -35 -26 -31 -18 4 -32 -3 -52 -25 -21 -22 -23
-27 -8 -19 13 7 27 7 38 1 13 -8 15 -6 11 6 -3 8 -1 15 5 15 6 0 11 -4 11 -9
0 -11 153 -165 191 -192 16 -11 29 -25 29 -30 0 -6 -4 -8 -8 -5 -4 2 -8 -5 -7
-18 0 -22 51 -93 60 -84 3 2 -9 17 -25 33 -44 42 -37 52 10 13 22 -18 38 -39
35 -46 -3 -7 -1 -10 4 -7 5 3 13 1 16 -5 5 -8 11 -7 21 1 8 7 14 7 14 1 0 -19
-26 -32 -38 -20 -6 6 -14 9 -17 7 -2 -3 11 -21 30 -39 19 -19 35 -29 35 -23 0
7 -4 15 -10 18 -5 3 -10 11 -10 17 0 7 5 7 14 -1 7 -6 20 -9 29 -5 8 3 18 1
22 -5 3 -6 11 -11 17 -11 6 0 4 8 -5 18 -34 37 -16 33 23 -5 35 -36 39 -44 34
-79 -4 -31 0 -26 20 29 13 37 30 75 37 83 6 8 10 16 8 18 -6 4 -252 203 -328
265 -36 29 -82 68 -103 86 -39 36 -79 61 -77 48z m254 -333 c41 -42 37 -55 -5
-17 -35 31 -54 57 -43 57 5 0 27 -18 48 -40z"/>
<path d="M973 4361 c-51 -24 -61 -42 -64 -117 -1 -32 -6 -66 -11 -74 -17 -32
-37 -104 -30 -114 3 -6 7 -18 9 -26 3 -23 44 -51 64 -45 11 4 19 2 19 -5 0 -6
-5 -8 -11 -4 -13 7 -102 -84 -123 -127 -15 -29 -14 -30 7 -24 12 4 35 16 51
27 l30 21 72 -75 c40 -42 77 -77 83 -79 6 -2 -7 -30 -30 -62 -44 -62 -38 -70
27 -32 l42 25 73 -80 c40 -43 76 -77 81 -74 16 10 8 -10 -19 -45 -42 -54 -55
-81 -39 -81 13 0 65 36 79 55 4 6 23 -8 49 -35 132 -143 129 -138 103 -160 -8
-7 -15 -17 -15 -22 0 -11 33 -6 42 6 3 5 19 -6 35 -24 15 -19 35 -41 43 -49 9
-9 27 -33 40 -54 18 -26 30 -36 43 -33 20 5 23 11 -29 -69 -16 -24 -16 -25 2
-19 11 4 25 12 32 17 7 5 14 8 15 6 2 -2 22 -33 45 -69 36 -57 53 -79 102
-137 5 -7 10 -16 10 -21 0 -5 9 -19 19 -31 11 -13 17 -29 14 -37 -3 -8 0 -14
6 -14 17 0 83 37 93 52 5 9 8 10 8 1 0 -6 -4 -14 -10 -18 -5 -3 -7 -12 -4 -20
3 -7 1 -22 -5 -33 -14 -27 -13 -175 3 -289 2 -18 0 -35 -5 -38 -5 -4 -9 -24
-9 -46 0 -23 4 -38 10 -34 5 3 7 12 3 20 -9 25 23 17 35 -9 8 -18 7 -30 -3
-50 -8 -15 -12 -32 -10 -39 2 -7 6 -25 10 -41 5 -25 4 -28 -8 -17 -8 6 -13 20
-10 30 3 10 -1 22 -8 26 -7 5 -10 4 -5 -3 3 -6 2 -13 -3 -17 -6 -3 -15 4 -21
15 -9 17 -8 20 10 20 21 0 25 7 11 28 -6 10 -10 10 -21 -3 -7 -9 -19 -14 -26
-11 -21 8 -33 -50 -34 -159 -1 -55 -1 -107 -1 -116 1 -16 23 -46 62 -85 16
-16 18 -24 8 -29 -7 -5 -10 -4 -5 3 3 6 2 13 -3 16 -14 9 -23 -66 -12 -94 9
-22 10 -23 11 -5 2 17 3 16 9 -5 6 -20 13 -25 40 -25 25 0 36 6 47 25 l14 25
-3 -25 c-1 -16 3 -24 11 -22 6 1 12 -4 12 -12 0 -8 10 -23 23 -33 12 -10 34
-36 48 -58 15 -22 45 -60 68 -85 22 -25 41 -48 41 -52 0 -4 9 -9 19 -13 13 -4
18 -12 14 -22 -4 -10 -2 -14 4 -10 5 3 27 -21 48 -53 21 -33 43 -60 48 -60 4
0 5 -5 2 -10 -3 -6 1 -13 9 -16 9 -3 16 -10 16 -14 0 -4 15 -23 33 -42 57 -60
222 -281 257 -345 21 -37 38 -59 43 -54 5 5 10 39 10 74 1 78 -23 132 -135
303 -40 61 -98 150 -128 198 -30 47 -101 157 -158 244 -56 86 -106 171 -111
187 -8 28 -4 35 63 100 82 81 116 123 116 143 0 19 27 1 163 -107 103 -82 108
-87 103 -118 -5 -37 0 -40 24 -18 16 15 26 8 124 -80 110 -100 109 -98 89
-153 -4 -8 0 -10 11 -6 9 3 16 10 16 15 0 15 28 10 37 -6 5 -8 48 -55 97 -104
l88 -90 -21 -30 c-12 -16 -24 -44 -28 -61 -6 -31 -5 -32 17 -20 13 7 33 24 45
38 l23 27 42 -43 c23 -23 46 -39 51 -36 5 3 9 -1 9 -8 0 -8 20 -34 45 -58 51
-50 53 -61 25 -97 -11 -14 -20 -34 -20 -45 0 -11 -5 -29 -11 -40 -9 -17 -5
-16 25 7 21 16 41 36 47 47 5 10 15 18 21 18 6 0 51 -42 100 -92 l88 -93 -21
-48 c-32 -76 -21 -90 29 -41 23 23 42 37 43 30 0 -6 7 4 15 22 l14 33 53 -62
c28 -34 57 -70 63 -80 17 -29 137 -169 142 -164 2 2 31 -29 65 -68 34 -40 98
-110 143 -157 83 -87 184 -201 241 -271 l31 -39 21 26 c37 47 21 126 -38 192
-30 34 -83 109 -266 377 -34 50 -80 117 -102 150 -116 169 -177 272 -176 295
1 14 8 43 17 65 20 52 20 89 0 131 -24 50 -64 68 -139 61 l-62 -6 -19 37 c-11
20 -41 69 -67 109 -26 39 -47 76 -47 81 0 5 -9 17 -20 27 -11 10 -20 22 -20
27 0 5 -40 72 -90 149 -49 76 -86 139 -82 139 15 0 42 116 36 149 -8 39 -66
100 -97 103 -12 1 -41 0 -64 -1 -34 -2 -43 1 -43 13 0 9 -4 16 -8 16 -5 0 -16
17 -26 38 -10 20 -50 90 -88 156 -39 65 -79 140 -88 167 -10 27 -28 64 -39 82
-12 17 -28 48 -37 67 -9 19 -23 43 -31 52 -9 10 -13 24 -9 33 3 9 2 13 -4 10
-19 -12 -2 43 20 65 5 5 18 27 44 75 6 11 17 28 25 38 8 9 11 17 7 17 -4 0 0
7 8 16 9 8 13 20 10 26 -4 6 -3 8 3 5 5 -3 25 24 44 61 19 37 40 73 46 80 7 7
18 31 24 52 7 22 15 40 19 40 4 0 15 35 26 78 10 42 22 80 26 83 12 8 22 132
14 164 -4 16 -12 25 -19 22 -8 -3 -13 4 -14 17 0 11 1 15 4 8 4 -10 8 -10 19
-1 21 17 17 38 -6 34 -17 -3 -19 1 -16 28 6 45 -9 59 -52 51 -24 -5 -33 -3
-28 4 3 6 1 14 -5 18 -8 4 -9 3 -5 -4 4 -7 2 -12 -5 -12 -7 0 -4 -6 6 -14 11
-8 23 -12 27 -9 5 2 11 -3 14 -11 3 -9 10 -13 15 -10 5 3 6 -2 3 -11 -4 -10
-1 -14 7 -12 8 2 11 2 7 0 -5 -3 -8 -12 -8 -21 -1 -15 -2 -15 -14 1 -8 10 -23
17 -33 16 -10 -2 -27 2 -38 8 -37 20 -135 1 -192 -37 -24 -17 -46 -30 -48 -30
-18 0 -100 -100 -129 -156 -20 -38 -40 -73 -44 -79 -9 -11 -24 -44 -27 -60 -1
-6 -14 -30 -29 -55 -15 -25 -36 -64 -48 -87 -27 -52 -38 -54 -38 -8 l0 35 -27
-17 c-16 -10 -61 -50 -100 -90 -40 -40 -77 -73 -83 -73 -19 0 -10 22 33 78
l44 57 -19 33 c-10 18 -16 38 -13 43 4 5 0 9 -7 9 -7 0 -19 12 -25 28 -7 15
-29 38 -49 52 -20 13 -41 37 -46 53 -10 26 -12 27 -31 14 -20 -13 -28 -9 -112
58 -49 39 -111 86 -136 103 -26 17 -58 45 -72 61 -14 17 -28 27 -32 23 -5 -4
-5 1 -2 11 4 10 7 22 7 25 0 4 4 2 8 -5 4 -6 8 20 10 58 3 78 -11 110 -59 135
-40 20 -108 18 -146 -6 -37 -22 -48 -41 -56 -95 -4 -22 -19 -64 -33 -94 -15
-29 -31 -68 -35 -85 -6 -22 -7 -9 -6 44 2 56 9 89 29 132 l26 56 -102 73 c-55
41 -135 103 -176 138 -41 36 -76 65 -78 66 -1 1 7 22 18 46 25 56 25 86 0 126
-39 65 -108 86 -177 54z m2061 -686 c22 -22 25 -22 29 -7 3 9 5 -2 6 -25 0
-24 6 -43 11 -43 6 0 9 -3 9 -7 -1 -5 0 -10 1 -13 7 -13 5 -60 -2 -60 -4 0 -8
7 -8 15 0 8 -10 24 -22 35 -21 19 -23 20 -29 3 -4 -10 -6 3 -4 29 2 36 -2 51
-16 64 -11 9 -19 21 -19 26 0 15 19 8 44 -17z"/>
<path d="M718 4225 c-6 -28 3 -32 21 -11 8 10 8 16 -3 25 -11 9 -15 6 -18 -14z"/>
<path d="M1155 4171 c-3 -5 -1 -12 5 -16 5 -3 10 1 10 9 0 18 -6 21 -15 7z"/>
<path d="M1229 2563 c-1 -5 -1 -12 0 -17 1 -5 -4 -6 -12 -3 -19 7 -15 -23 6
-53 9 -14 17 -21 17 -16 0 5 8 2 19 -8 11 -10 25 -14 36 -10 14 6 16 3 11 -13
-5 -15 2 -26 29 -44 19 -13 35 -27 35 -31 0 -5 7 -8 15 -8 8 0 15 -5 15 -10 0
-12 79 -90 91 -90 5 0 6 -7 3 -15 -4 -10 0 -15 15 -15 15 0 19 -4 14 -17 -4
-11 -3 -14 5 -9 7 4 50 -32 107 -89 53 -52 102 -95 109 -95 20 0 41 -30 38
-54 -2 -17 -1 -18 7 -6 9 13 11 12 11 -4 0 -45 9 -5 14 69 4 44 9 100 12 125
3 32 1 41 -5 30 -9 -13 -12 -13 -23 1 -11 14 -178 141 -413 314 -88 65 -152
93 -156 68z"/>
<path d="M1882 2410 c0 -14 2 -19 5 -12 2 6 2 18 0 25 -3 6 -5 1 -5 -13z"/>
<path d="M1891 2294 c0 -11 3 -14 6 -6 3 7 2 16 -1 19 -3 4 -6 -2 -5 -13z"/>
<path d="M1852 1768 c1 -21 6 -38 10 -38 10 0 9 29 -2 55 -7 16 -9 12 -8 -17z"/>
</g>
</svg>
